<svg width="260" height="44" viewBox="0 0 260 44" fill="none" xmlns="http://www.w3.org/2000/svg">
<path d="M25.5941 36.9239V6.46791H27.7541V19.2479H32.9741V6.46791H35.1341V36.9239H32.9741V21.1199H27.7541V36.9239H25.5941ZM7.41406 36.9239V6.46791H21.7781V8.33991H9.57406V19.7879H21.4181V21.6599H9.57406V35.0519H12.0221C15.9821 35.0519 19.5461 34.9079 22.6781 34.2599V36.1319C19.5461 36.7799 15.9821 36.9239 12.0221 36.9239H7.41406ZM40.7028 13.8479C40.7028 9.31191 44.2308 6.10791 49.8828 6.10791C55.5348 6.10791 59.0628 9.31191 59.0628 13.8479V15.8639C59.0628 20.0399 55.5348 23.6039 49.8828 23.6039C44.2308 23.6039 40.7028 20.0399 40.7028 15.8639V13.8479ZM65.0028 28.6439V6.46791H67.1628V14.2079H71.8428V16.0799H67.1628V28.6439H65.0028ZM49.8828 21.7319C54.1308 21.7319 56.9028 19.0679 56.9028 15.8639V13.8479C56.9028 10.2839 54.1308 7.97991 49.8828 7.97991C45.6348 7.97991 42.8628 10.2839 42.8628 13.8479V15.8639C42.8628 19.0679 45.6348 21.7319 49.8828 21.7319ZM49.8828 18.7079C49.7388 15.8639 48.6948 15.0359 46.3548 14.9279C48.6948 14.8199 49.7388 13.9919 49.8828 11.1479C50.0268 13.9919 51.0348 14.8199 53.4108 14.9279C51.0348 15.0359 50.0268 15.8639 49.8828 18.7079ZM43.4028 26.7719V35.0519H67.5228V36.9239H41.2428V26.7719H43.4028Z" fill="#007EE5"/>
<mask id="mask0_1534_47556" style="mask-type:luminance" maskUnits="userSpaceOnUse" x="5" y="5" width="69" height="33">
<path d="M73.5 5H5.5V38H73.5V5Z" fill="white"/>
<path d="M25.5941 36.9239V6.46791H27.7541V19.2479H32.9741V6.46791H35.1341V36.9239H32.9741V21.1199H27.7541V36.9239H25.5941ZM7.41406 36.9239V6.46791H21.7781V8.33991H9.57406V19.7879H21.4181V21.6599H9.57406V35.0519H12.0221C15.9821 35.0519 19.5461 34.9079 22.6781 34.2599V36.1319C19.5461 36.7799 15.9821 36.9239 12.0221 36.9239H7.41406ZM40.7028 13.8479C40.7028 9.31191 44.2308 6.10791 49.8828 6.10791C55.5348 6.10791 59.0628 9.31191 59.0628 13.8479V15.8639C59.0628 20.0399 55.5348 23.6039 49.8828 23.6039C44.2308 23.6039 40.7028 20.0399 40.7028 15.8639V13.8479ZM65.0028 28.6439V6.46791H67.1628V14.2079H71.8428V16.0799H67.1628V28.6439H65.0028ZM49.8828 21.7319C54.1308 21.7319 56.9028 19.0679 56.9028 15.8639V13.8479C56.9028 10.2839 54.1308 7.97991 49.8828 7.97991C45.6348 7.97991 42.8628 10.2839 42.8628 13.8479V15.8639C42.8628 19.0679 45.6348 21.7319 49.8828 21.7319ZM49.8828 18.7079C49.7388 15.8639 48.6948 15.0359 46.3548 14.9279C48.6948 14.8199 49.7388 13.9919 49.8828 11.1479C50.0268 13.9919 51.0348 14.8199 53.4108 14.9279C51.0348 15.0359 50.0268 15.8639 49.8828 18.7079ZM43.4028 26.7719V35.0519H67.5228V36.9239H41.2428V26.7719H43.4028Z" fill="black"/>
</mask>
<g mask="url(#mask0_1534_47556)">
<path d="M49.8791 15.3382C49.948 15.2523 50.0214 15.1696 50.0994 15.0904C50.1553 15.0336 50.2127 14.9795 50.2715 14.9279C50.2127 14.8763 50.1553 14.8222 50.0994 14.7654C50.0214 14.6862 49.948 14.6036 49.8791 14.5176C49.8087 14.6046 49.734 14.6881 49.6545 14.7682C49.5992 14.824 49.5424 14.8772 49.4844 14.9279C49.5424 14.9786 49.5992 15.0318 49.6545 15.0876C49.734 15.1677 49.8087 15.2512 49.8791 15.3382Z" fill="#007EE5"/>
<path fill-rule="evenodd" clip-rule="evenodd" d="M24.5941 36.9239C24.5941 37.4762 25.0418 37.9239 25.5941 37.9239H27.7541C28.3063 37.9239 28.7541 37.4762 28.7541 36.9239V22.1199H31.9741V36.9239C31.9741 37.4762 32.4218 37.9239 32.9741 37.9239H35.1341C35.6863 37.9239 36.1341 37.4762 36.1341 36.9239V6.46791C36.1341 5.91562 35.6863 5.46791 35.1341 5.46791H32.9741C32.4218 5.46791 31.9741 5.91562 31.9741 6.46791V18.2479H28.7541V6.46791C28.7541 5.91562 28.3063 5.46791 27.7541 5.46791H25.5941C25.0418 5.46791 24.5941 5.91562 24.5941 6.46791V36.9239ZM26.7541 19.2479C26.7541 19.676 27.0231 20.0413 27.4013 20.1839C27.0231 20.3265 26.7541 20.6918 26.7541 21.1199V35.9239H26.5941V7.46791H26.7541V19.2479ZM33.9741 21.1199C33.9741 20.6918 33.705 20.3265 33.3268 20.1839C33.705 20.0413 33.9741 19.676 33.9741 19.2479V7.46791H34.1341V35.9239H33.9741V21.1199ZM6.41406 36.9239C6.41406 37.4762 6.86178 37.9239 7.41406 37.9239H12.0221C15.9929 37.9239 19.6428 37.7811 22.8807 37.1112C23.345 37.0151 23.6781 36.6061 23.6781 36.1319V34.2599C23.6781 33.9591 23.5427 33.6744 23.3095 33.4845C23.0763 33.2946 22.77 33.2197 22.4754 33.2806C19.4493 33.9067 15.9712 34.0519 12.0221 34.0519H10.5741V22.6599H21.4181C21.9703 22.6599 22.4181 22.2122 22.4181 21.6599V19.7879C22.4181 19.2356 21.9703 18.7879 21.4181 18.7879H10.5741V9.33991H21.7781C22.3303 9.33991 22.7781 8.89219 22.7781 8.33991V6.46791C22.7781 5.91562 22.3303 5.46791 21.7781 5.46791H7.41406C6.86178 5.46791 6.41406 5.91562 6.41406 6.46791V36.9239ZM8.57406 35.0519C8.57406 35.4262 8.77971 35.7525 9.08419 35.9239H8.41406V7.46791H9.08419C8.77971 7.63933 8.57406 7.9656 8.57406 8.33991V19.7879C8.57406 20.216 8.84308 20.5813 9.22129 20.7239C8.84308 20.8665 8.57406 21.2318 8.57406 21.6599V35.0519ZM64.0028 28.6439C64.0028 29.1962 64.4505 29.6439 65.0028 29.6439H67.1628C67.7151 29.6439 68.1628 29.1962 68.1628 28.6439V17.0799H71.8428C72.3951 17.0799 72.8428 16.6322 72.8428 16.0799V14.2079C72.8428 13.6556 72.3951 13.2079 71.8428 13.2079H68.1628V6.46791C68.1628 5.91562 67.7151 5.46791 67.1628 5.46791H65.0028C64.4505 5.46791 64.0028 5.91562 64.0028 6.46791V28.6439ZM66.1628 14.2079C66.1628 14.636 66.4318 15.0013 66.81 15.1439C66.4318 15.2865 66.1628 15.6518 66.1628 16.0799V27.6439H66.0028V7.46791H66.1628V14.2079ZM44.4028 26.7719C44.4028 26.2196 43.9551 25.7719 43.4028 25.7719H41.2428C40.6905 25.7719 40.2428 26.2196 40.2428 26.7719V36.9239C40.2428 37.4762 40.6905 37.9239 41.2428 37.9239H67.5228C68.0751 37.9239 68.5228 37.4762 68.5228 36.9239V35.0519C68.5228 34.4996 68.0751 34.0519 67.5228 34.0519H44.4028V26.7719ZM42.4028 35.0519C42.4028 35.4262 42.6085 35.7525 42.9129 35.9239H42.2428V27.7719H42.4028V35.0519ZM41.7028 13.8479C41.7028 11.8564 42.4688 10.2033 43.8259 9.03465C44.0482 8.84325 44.2882 8.66322 44.5458 8.49591C44.4058 8.59568 44.2702 8.70027 44.1391 8.80965C42.6754 10.0312 41.8628 11.7854 41.8628 13.8479V15.8639C41.8628 18.1095 42.9854 20.0556 44.8353 21.2971C42.8011 20.0346 41.7028 18.0036 41.7028 15.8639V13.8479ZM55.9397 9.03465C55.7175 8.84324 55.4774 8.6632 55.2198 8.49589C55.3598 8.59566 55.4954 8.70026 55.6265 8.80965C57.0902 10.0312 57.9028 11.7854 57.9028 13.8479V15.8639C57.9028 18.1095 56.7802 20.0556 54.9303 21.2971C56.9645 20.0346 58.0628 18.0036 58.0628 15.8639V13.8479C58.0628 11.8564 57.2968 10.2033 55.9397 9.03465ZM49.8828 5.10791C46.8723 5.10791 44.3285 5.96235 42.5207 7.51917C40.7008 9.08647 39.7028 11.3034 39.7028 13.8479V15.8639C39.7028 20.699 43.7918 24.6039 49.8828 24.6039C55.9738 24.6039 60.0628 20.699 60.0628 15.8639V13.8479C60.0628 11.3034 59.0648 9.08647 57.2449 7.51917C55.4371 5.96235 52.8933 5.10791 49.8828 5.10791ZM55.9028 15.8639C55.9028 18.3907 53.7123 20.7319 49.8828 20.7319C46.0533 20.7319 43.8628 18.3907 43.8628 15.8639V13.8479C43.8628 12.3464 44.4362 11.1666 45.4205 10.3452C46.4228 9.50871 47.9319 8.97991 49.8828 8.97991C51.8337 8.97991 53.3428 9.50871 54.3451 10.3452C55.3294 11.1666 55.9028 12.3464 55.9028 13.8479V15.8639Z" fill="#007EE5"/>
</g>
<path d="M78.8172 22.3599L87.3772 8.99992H78.6172V6.91992H88.6172V2.91992H91.0172V6.91992H101.018V8.99992H92.2172L100.817 22.3599H98.3372L89.8172 9.11992L81.2972 22.3599H78.8172ZM107.418 23.0799V14.4799H99.0972V12.3999H107.418V4.51992H109.818V23.0799H107.418ZM78.8172 31.9199C78.8172 27.4399 81.5772 25.4799 86.2172 25.4799H103.018C107.658 25.4799 110.418 27.4399 110.418 31.9199C110.418 36.3999 107.658 38.3599 103.018 38.3599H86.2172C81.5772 38.3599 78.8172 36.3999 78.8172 31.9199ZM81.2172 31.9199C81.2172 34.8399 82.6572 36.2799 86.2172 36.2799H103.018C106.578 36.2799 108.018 34.8399 108.018 31.9199C108.018 28.9999 106.578 27.5599 103.018 27.5599H86.2172C82.6572 27.5599 81.2172 28.9999 81.2172 31.9199ZM131.485 12.9999H144.605V9.03992H131.485V6.95992H144.605V4.51992H147.005V29.1599H144.605V15.0799H131.485V12.9999ZM116.205 4.51992H118.605V20.4799H126.125C129.725 20.4799 133.285 20.1999 136.765 19.7599V21.8399C133.285 22.2799 129.725 22.5599 126.125 22.5599H116.205V4.51992ZM119.005 27.0799V36.2799H147.405V38.3599H116.605V27.0799H119.005Z" fill="#007EE5"/>
<mask id="mask1_1534_47556" style="mask-type:luminance" maskUnits="userSpaceOnUse" x="77" y="1" width="72" height="39">
<path d="M148.5 1H77.5V40H148.5V1Z" fill="white"/>
<path d="M78.8172 22.3599L87.3772 8.99992H78.6172V6.91992H88.6172V2.91992H91.0172V6.91992H101.018V8.99992H92.2172L100.817 22.3599H98.3372L89.8172 9.11992L81.2972 22.3599H78.8172ZM107.418 23.0799V14.4799H99.0972V12.3999H107.418V4.51992H109.818V23.0799H107.418ZM78.8172 31.9199C78.8172 27.4399 81.5772 25.4799 86.2172 25.4799H103.018C107.658 25.4799 110.418 27.4399 110.418 31.9199C110.418 36.3999 107.658 38.3599 103.018 38.3599H86.2172C81.5772 38.3599 78.8172 36.3999 78.8172 31.9199ZM81.2172 31.9199C81.2172 34.8399 82.6572 36.2799 86.2172 36.2799H103.018C106.578 36.2799 108.018 34.8399 108.018 31.9199C108.018 28.9999 106.578 27.5599 103.018 27.5599H86.2172C82.6572 27.5599 81.2172 28.9999 81.2172 31.9199ZM131.485 12.9999H144.605V9.03992H131.485V6.95992H144.605V4.51992H147.005V29.1599H144.605V15.0799H131.485V12.9999ZM116.205 4.51992H118.605V20.4799H126.125C129.725 20.4799 133.285 20.1999 136.765 19.7599V21.8399C133.285 22.2799 129.725 22.5599 126.125 22.5599H116.205V4.51992ZM119.005 27.0799V36.2799H147.405V38.3599H116.605V27.0799H119.005Z" fill="black"/>
</mask>
<g mask="url(#mask1_1534_47556)">
<path d="M78.8172 22.3599L77.9752 21.8204C77.778 22.1282 77.7644 22.519 77.9399 22.8398C78.1153 23.1605 78.4517 23.3599 78.8172 23.3599V22.3599ZM87.3772 8.99992L88.2192 9.5394C88.4164 9.23162 88.43 8.84077 88.2545 8.52007C88.0791 8.19937 87.7427 7.99992 87.3772 7.99992V8.99992ZM78.6172 8.99992H77.6172C77.6172 9.5522 78.0649 9.99992 78.6172 9.99992V8.99992ZM78.6172 6.91992V5.91992C78.0649 5.91992 77.6172 6.36763 77.6172 6.91992H78.6172ZM88.6172 6.91992V7.91992C89.1695 7.91992 89.6172 7.4722 89.6172 6.91992H88.6172ZM88.6172 2.91992V1.91992C88.0649 1.91992 87.6172 2.36763 87.6172 2.91992H88.6172ZM91.0172 2.91992H92.0172C92.0172 2.36763 91.5695 1.91992 91.0172 1.91992V2.91992ZM91.0172 6.91992H90.0172C90.0172 7.4722 90.4649 7.91992 91.0172 7.91992V6.91992ZM101.018 6.91992H102.018C102.018 6.36763 101.57 5.91992 101.018 5.91992V6.91992ZM101.018 8.99992V9.99992C101.57 9.99992 102.018 9.5522 102.018 8.99992H101.018ZM92.2172 8.99992V7.99992C91.8513 7.99992 91.5146 8.19978 91.3393 8.521C91.1641 8.84222 91.1783 9.23351 91.3763 9.54119L92.2172 8.99992ZM100.817 22.3599V23.3599C101.183 23.3599 101.52 23.16 101.695 22.8388C101.871 22.5176 101.856 22.1263 101.658 21.8186L100.817 22.3599ZM98.3372 22.3599L97.4963 22.901C97.6803 23.187 97.9971 23.3599 98.3372 23.3599V22.3599ZM89.8172 9.11992L90.6581 8.57878C90.4741 8.29277 90.1573 8.11992 89.8172 8.11992C89.4771 8.11992 89.1603 8.29277 88.9763 8.57878L89.8172 9.11992ZM81.2972 22.3599V23.3599C81.6373 23.3599 81.9541 23.187 82.1381 22.901L81.2972 22.3599ZM107.418 23.0799H106.418C106.418 23.6322 106.865 24.0799 107.418 24.0799V23.0799ZM107.418 14.4799H108.418C108.418 13.9276 107.97 13.4799 107.418 13.4799V14.4799ZM99.0972 14.4799H98.0972C98.0972 15.0322 98.5449 15.4799 99.0972 15.4799V14.4799ZM99.0972 12.3999V11.3999C98.5449 11.3999 98.0972 11.8476 98.0972 12.3999H99.0972ZM107.418 12.3999V13.3999C107.97 13.3999 108.418 12.9522 108.418 12.3999H107.418ZM107.418 4.51992V3.51992C106.865 3.51992 106.418 3.96763 106.418 4.51992H107.418ZM109.818 4.51992H110.818C110.818 3.96763 110.37 3.51992 109.818 3.51992V4.51992ZM109.818 23.0799V24.0799C110.37 24.0799 110.818 23.6322 110.818 23.0799H109.818ZM79.6592 22.8994L88.2192 9.5394L86.5352 8.46044L77.9752 21.8204L79.6592 22.8994ZM87.3772 7.99992H78.6172V9.99992H87.3772V7.99992ZM79.6172 8.99992V6.91992H77.6172V8.99992H79.6172ZM78.6172 7.91992H88.6172V5.91992H78.6172V7.91992ZM89.6172 6.91992V2.91992H87.6172V6.91992H89.6172ZM88.6172 3.91992H91.0172V1.91992H88.6172V3.91992ZM90.0172 2.91992V6.91992H92.0172V2.91992H90.0172ZM91.0172 7.91992H101.018V5.91992H91.0172V7.91992ZM100.018 6.91992V8.99992H102.018V6.91992H100.018ZM101.018 7.99992H92.2172V9.99992H101.018V7.99992ZM91.3763 9.54119L99.9763 22.9012L101.658 21.8186L93.0581 8.45865L91.3763 9.54119ZM100.817 21.3599H98.3372V23.3599H100.817V21.3599ZM99.1781 21.8188L90.6581 8.57878L88.9763 9.66106L97.4963 22.901L99.1781 21.8188ZM88.9763 8.57878L80.4563 21.8188L82.1381 22.901L90.6581 9.66106L88.9763 8.57878ZM81.2972 21.3599H78.8172V23.3599H81.2972V21.3599ZM108.418 23.0799V14.4799H106.418V23.0799H108.418ZM107.418 13.4799H99.0972V15.4799H107.418V13.4799ZM100.098 14.4799V12.3999H98.0972V14.4799H100.098ZM99.0972 13.3999H107.418V11.3999H99.0972V13.3999ZM108.418 12.3999V4.51992H106.418V12.3999H108.418ZM107.418 5.51992H109.818V3.51992H107.418V5.51992ZM108.818 4.51992V23.0799H110.818V4.51992H108.818ZM109.818 22.0799H107.418V24.0799H109.818V22.0799ZM79.8172 31.9199C79.8172 29.8949 80.4313 28.6034 81.4144 27.7906C82.4328 26.9486 84.0145 26.4799 86.2172 26.4799V24.4799C83.7799 24.4799 81.6616 24.9912 80.14 26.2492C78.5831 27.5364 77.8172 29.4649 77.8172 31.9199H79.8172ZM86.2172 26.4799H103.018V24.4799H86.2172V26.4799ZM103.018 26.4799C105.22 26.4799 106.802 26.9486 107.82 27.7906C108.803 28.6034 109.418 29.8949 109.418 31.9199H111.418C111.418 29.4649 110.652 27.5364 109.095 26.2492C107.573 24.9912 105.455 24.4799 103.018 24.4799V26.4799ZM109.418 31.9199C109.418 33.9449 108.803 35.2364 107.82 36.0492C106.802 36.8912 105.22 37.3599 103.018 37.3599V39.3599C105.455 39.3599 107.573 38.8486 109.095 37.5906C110.652 36.3034 111.418 34.3749 111.418 31.9199H109.418ZM103.018 37.3599H86.2172V39.3599H103.018V37.3599ZM86.2172 37.3599C84.0145 37.3599 82.4328 36.8912 81.4144 36.0492C80.4313 35.2364 79.8172 33.9449 79.8172 31.9199H77.8172C77.8172 34.3749 78.5831 36.3034 80.14 37.5906C81.6616 38.8486 83.7799 39.3599 86.2172 39.3599V37.3599ZM80.2172 31.9199C80.2172 33.5315 80.6162 34.9501 81.713 35.938C82.7856 36.904 84.333 37.2799 86.2172 37.2799V35.2799C84.5414 35.2799 83.5888 34.9358 83.0514 34.4518C82.5382 33.9897 82.2172 33.2283 82.2172 31.9199H80.2172ZM86.2172 37.2799H103.018V35.2799H86.2172V37.2799ZM103.018 37.2799C104.902 37.2799 106.449 36.904 107.522 35.938C108.619 34.9501 109.018 33.5315 109.018 31.9199H107.018C107.018 33.2283 106.696 33.9897 106.183 34.4518C105.646 34.9358 104.693 35.2799 103.018 35.2799V37.2799ZM109.018 31.9199C109.018 30.3083 108.619 28.8897 107.522 27.9018C106.449 26.9358 104.902 26.5599 103.018 26.5599V28.5599C104.693 28.5599 105.646 28.904 106.183 29.388C106.696 29.8501 107.018 30.6115 107.018 31.9199H109.018ZM103.018 26.5599H86.2172V28.5599H103.018V26.5599ZM86.2172 26.5599C84.333 26.5599 82.7856 26.9358 81.713 27.9018C80.6162 28.8897 80.2172 30.3083 80.2172 31.9199H82.2172C82.2172 30.6115 82.5382 29.8501 83.0514 29.388C83.5888 28.904 84.5414 28.5599 86.2172 28.5599V26.5599ZM131.485 12.9999V11.9999C130.933 11.9999 130.485 12.4476 130.485 12.9999H131.485ZM144.605 12.9999V13.9999C145.157 13.9999 145.605 13.5522 145.605 12.9999H144.605ZM144.605 9.03992H145.605C145.605 8.48763 145.157 8.03992 144.605 8.03992V9.03992ZM131.485 9.03992H130.485C130.485 9.5922 130.933 10.0399 131.485 10.0399V9.03992ZM131.485 6.95992V5.95992C130.933 5.95992 130.485 6.40763 130.485 6.95992H131.485ZM144.605 6.95992V7.95992C145.157 7.95992 145.605 7.5122 145.605 6.95992H144.605ZM144.605 4.51992V3.51992C144.053 3.51992 143.605 3.96763 143.605 4.51992H144.605ZM147.005 4.51992H148.005C148.005 3.96763 147.557 3.51992 147.005 3.51992V4.51992ZM147.005 29.1599V30.1599C147.557 30.1599 148.005 29.7122 148.005 29.1599H147.005ZM144.605 29.1599H143.605C143.605 29.7122 144.053 30.1599 144.605 30.1599V29.1599ZM144.605 15.0799H145.605C145.605 14.5276 145.157 14.0799 144.605 14.0799V15.0799ZM131.485 15.0799H130.485C130.485 15.6322 130.933 16.0799 131.485 16.0799V15.0799ZM116.205 4.51992V3.51992C115.653 3.51992 115.205 3.96763 115.205 4.51992H116.205ZM118.605 4.51992H119.605C119.605 3.96763 119.157 3.51992 118.605 3.51992V4.51992ZM118.605 20.4799H117.605C117.605 21.0322 118.053 21.4799 118.605 21.4799V20.4799ZM136.765 19.7599H137.765C137.765 19.4728 137.642 19.1996 137.426 19.0098C137.211 18.8199 136.924 18.7318 136.64 18.7678L136.765 19.7599ZM136.765 21.8399L136.89 22.832C137.39 22.7688 137.765 22.3437 137.765 21.8399H136.765ZM116.205 22.5599H115.205C115.205 23.1122 115.653 23.5599 116.205 23.5599V22.5599ZM119.005 27.0799H120.005C120.005 26.5276 119.557 26.0799 119.005 26.0799V27.0799ZM119.005 36.2799H118.005C118.005 36.8322 118.453 37.2799 119.005 37.2799V36.2799ZM147.405 36.2799H148.405C148.405 35.7276 147.957 35.2799 147.405 35.2799V36.2799ZM147.405 38.3599V39.3599C147.957 39.3599 148.405 38.9122 148.405 38.3599H147.405ZM116.605 38.3599H115.605C115.605 38.9122 116.053 39.3599 116.605 39.3599V38.3599ZM116.605 27.0799V26.0799C116.053 26.0799 115.605 26.5276 115.605 27.0799H116.605ZM131.485 13.9999H144.605V11.9999H131.485V13.9999ZM145.605 12.9999V9.03992H143.605V12.9999H145.605ZM144.605 8.03992H131.485V10.0399H144.605V8.03992ZM132.485 9.03992V6.95992H130.485V9.03992H132.485ZM131.485 7.95992H144.605V5.95992H131.485V7.95992ZM145.605 6.95992V4.51992H143.605V6.95992H145.605ZM144.605 5.51992H147.005V3.51992H144.605V5.51992ZM146.005 4.51992V29.1599H148.005V4.51992H146.005ZM147.005 28.1599H144.605V30.1599H147.005V28.1599ZM145.605 29.1599V15.0799H143.605V29.1599H145.605ZM144.605 14.0799H131.485V16.0799H144.605V14.0799ZM132.485 15.0799V12.9999H130.485V15.0799H132.485ZM116.205 5.51992H118.605V3.51992H116.205V5.51992ZM117.605 4.51992V20.4799H119.605V4.51992H117.605ZM118.605 21.4799H126.125V19.4799H118.605V21.4799ZM126.125 21.4799C129.776 21.4799 133.379 21.1959 136.89 20.752L136.64 18.7678C133.191 19.2039 129.674 19.4799 126.125 19.4799V21.4799ZM135.765 19.7599V21.8399H137.765V19.7599H135.765ZM136.64 20.8478C133.191 21.2839 129.674 21.5599 126.125 21.5599V23.5599C129.776 23.5599 133.379 23.2759 136.89 22.832L136.64 20.8478ZM126.125 21.5599H116.205V23.5599H126.125V21.5599ZM117.205 22.5599V4.51992H115.205V22.5599H117.205ZM118.005 27.0799V36.2799H120.005V27.0799H118.005ZM119.005 37.2799H147.405V35.2799H119.005V37.2799ZM146.405 36.2799V38.3599H148.405V36.2799H146.405ZM147.405 37.3599H116.605V39.3599H147.405V37.3599ZM117.605 38.3599V27.0799H115.605V38.3599H117.605ZM116.605 28.0799H119.005V26.0799H116.605V28.0799Z" fill="#007EE5"/>
</g>
<path d="M169.012 6.46777L177.652 22.8838H175.42L167.572 7.97977L159.724 22.8838H157.492L166.132 6.46777H169.012ZM183.232 28.6438V6.46777H185.392V28.6438H183.232ZM160.192 26.7718V35.0518H185.752V36.9238H158.032V26.7718H160.192ZM191.141 18.2038V6.46777H218.861V18.2038H191.141ZM193.301 16.3318H216.701V8.33977H193.301V16.3318ZM190.781 22.8118H219.221V24.6838H206.441V31.5598H204.281V24.6838H190.781V22.8118ZM193.661 28.9318V35.0518H219.221V36.9238H191.501V28.9318H193.661ZM235.949 6.46777L244.049 36.9238H241.817L234.149 8.08777L226.481 36.9238H224.249L232.349 6.46777H235.949ZM248.729 36.9238V6.46777H250.889V19.2478H255.569V21.1198H250.889V36.9238H248.729Z" fill="#007EE5"/>
<mask id="mask2_1534_47556" style="mask-type:luminance" maskUnits="userSpaceOnUse" x="155" y="5" width="103" height="33">
<path d="M257.5 5H155.5V38H257.5V5Z" fill="white"/>
<path d="M169.012 6.46777L177.652 22.8838H175.42L167.572 7.97977L159.724 22.8838H157.492L166.132 6.46777H169.012ZM183.232 28.6438V6.46777H185.392V28.6438H183.232ZM160.192 26.7718V35.0518H185.752V36.9238H158.032V26.7718H160.192ZM191.141 18.2038V6.46777H218.861V18.2038H191.141ZM193.301 16.3318H216.701V8.33977H193.301V16.3318ZM190.781 22.8118H219.221V24.6838H206.441V31.5598H204.281V24.6838H190.781V22.8118ZM193.661 28.9318V35.0518H219.221V36.9238H191.501V28.9318H193.661ZM235.949 6.46777L244.049 36.9238H241.817L234.149 8.08777L226.481 36.9238H224.249L232.349 6.46777H235.949ZM248.729 36.9238V6.46777H250.889V19.2478H255.569V21.1198H250.889V36.9238H248.729Z" fill="black"/>
</mask>
<g mask="url(#mask2_1534_47556)">
<path d="M169.012 6.46777L169.897 6.00202C169.724 5.67347 169.383 5.46777 169.012 5.46777V6.46777ZM177.652 22.8838V23.8838C178.002 23.8838 178.327 23.7005 178.508 23.4006C178.689 23.1008 178.7 22.728 178.537 22.4181L177.652 22.8838ZM175.42 22.8838L174.535 23.3497C174.708 23.6782 175.049 23.8838 175.42 23.8838V22.8838ZM167.572 7.97977L168.457 7.51385C168.284 7.18539 167.943 6.97977 167.572 6.97977C167.201 6.97977 166.86 7.18539 166.687 7.51385L167.572 7.97977ZM159.724 22.8838V23.8838C160.095 23.8838 160.436 23.6782 160.609 23.3497L159.724 22.8838ZM157.492 22.8838L156.607 22.4181C156.444 22.728 156.455 23.1008 156.636 23.4006C156.817 23.7005 157.142 23.8838 157.492 23.8838V22.8838ZM166.132 6.46777V5.46777C165.761 5.46777 165.42 5.67347 165.247 6.00202L166.132 6.46777ZM183.232 28.6438H182.232C182.232 29.1961 182.68 29.6438 183.232 29.6438V28.6438ZM183.232 6.46777V5.46777C182.68 5.46777 182.232 5.91548 182.232 6.46777H183.232ZM185.392 6.46777H186.392C186.392 5.91548 185.944 5.46777 185.392 5.46777V6.46777ZM185.392 28.6438V29.6438C185.944 29.6438 186.392 29.1961 186.392 28.6438H185.392ZM160.192 26.7718H161.192C161.192 26.2195 160.744 25.7718 160.192 25.7718V26.7718ZM160.192 35.0518H159.192C159.192 35.6041 159.64 36.0518 160.192 36.0518V35.0518ZM185.752 35.0518H186.752C186.752 34.4995 186.304 34.0518 185.752 34.0518V35.0518ZM185.752 36.9238V37.9238C186.304 37.9238 186.752 37.4761 186.752 36.9238H185.752ZM158.032 36.9238H157.032C157.032 37.4761 157.48 37.9238 158.032 37.9238V36.9238ZM158.032 26.7718V25.7718C157.48 25.7718 157.032 26.2195 157.032 26.7718H158.032ZM168.127 6.93351L176.767 23.3495L178.537 22.4181L169.897 6.00202L168.127 6.93351ZM177.652 21.8838H175.42V23.8838H177.652V21.8838ZM176.305 22.4179L168.457 7.51385L166.687 8.44569L174.535 23.3497L176.305 22.4179ZM166.687 7.51385L158.839 22.4179L160.609 23.3497L168.457 8.44569L166.687 7.51385ZM159.724 21.8838H157.492V23.8838H159.724V21.8838ZM158.377 23.3495L167.017 6.93351L165.247 6.00202L156.607 22.4181L158.377 23.3495ZM166.132 7.46777H169.012V5.46777H166.132V7.46777ZM184.232 28.6438V6.46777H182.232V28.6438H184.232ZM183.232 7.46777H185.392V5.46777H183.232V7.46777ZM184.392 6.46777V28.6438H186.392V6.46777H184.392ZM185.392 27.6438H183.232V29.6438H185.392V27.6438ZM159.192 26.7718V35.0518H161.192V26.7718H159.192ZM160.192 36.0518H185.752V34.0518H160.192V36.0518ZM184.752 35.0518V36.9238H186.752V35.0518H184.752ZM185.752 35.9238H158.032V37.9238H185.752V35.9238ZM159.032 36.9238V26.7718H157.032V36.9238H159.032ZM158.032 27.7718H160.192V25.7718H158.032V27.7718ZM191.141 18.2038H190.141C190.141 18.7561 190.588 19.2038 191.141 19.2038V18.2038ZM191.141 6.46777V5.46777C190.588 5.46777 190.141 5.91548 190.141 6.46777H191.141ZM218.861 6.46777H219.861C219.861 5.91548 219.413 5.46777 218.861 5.46777V6.46777ZM218.861 18.2038V19.2038C219.413 19.2038 219.861 18.7561 219.861 18.2038H218.861ZM193.301 16.3318H192.301C192.301 16.8841 192.748 17.3318 193.301 17.3318V16.3318ZM216.701 16.3318V17.3318C217.253 17.3318 217.701 16.8841 217.701 16.3318H216.701ZM216.701 8.33977H217.701C217.701 7.78748 217.253 7.33977 216.701 7.33977V8.33977ZM193.301 8.33977V7.33977C192.748 7.33977 192.301 7.78748 192.301 8.33977H193.301ZM190.781 22.8118V21.8118C190.228 21.8118 189.781 22.2595 189.781 22.8118H190.781ZM219.221 22.8118H220.221C220.221 22.2595 219.773 21.8118 219.221 21.8118V22.8118ZM219.221 24.6838V25.6838C219.773 25.6838 220.221 25.2361 220.221 24.6838H219.221ZM206.441 24.6838V23.6838C205.888 23.6838 205.441 24.1315 205.441 24.6838H206.441ZM206.441 31.5598V32.5598C206.993 32.5598 207.441 32.1121 207.441 31.5598H206.441ZM204.281 31.5598H203.281C203.281 32.1121 203.728 32.5598 204.281 32.5598V31.5598ZM204.281 24.6838H205.281C205.281 24.1315 204.833 23.6838 204.281 23.6838V24.6838ZM190.781 24.6838H189.781C189.781 25.2361 190.228 25.6838 190.781 25.6838V24.6838ZM193.661 28.9318H194.661C194.661 28.3795 194.213 27.9318 193.661 27.9318V28.9318ZM193.661 35.0518H192.661C192.661 35.6041 193.108 36.0518 193.661 36.0518V35.0518ZM219.221 35.0518H220.221C220.221 34.4995 219.773 34.0518 219.221 34.0518V35.0518ZM219.221 36.9238V37.9238C219.773 37.9238 220.221 37.4761 220.221 36.9238H219.221ZM191.501 36.9238H190.501C190.501 37.4761 190.948 37.9238 191.501 37.9238V36.9238ZM191.501 28.9318V27.9318C190.948 27.9318 190.501 28.3795 190.501 28.9318H191.501ZM192.141 18.2038V6.46777H190.141V18.2038H192.141ZM191.141 7.46777H218.861V5.46777H191.141V7.46777ZM217.861 6.46777V18.2038H219.861V6.46777H217.861ZM218.861 17.2038H191.141V19.2038H218.861V17.2038ZM193.301 17.3318H216.701V15.3318H193.301V17.3318ZM217.701 16.3318V8.33977H215.701V16.3318H217.701ZM216.701 7.33977H193.301V9.33977H216.701V7.33977ZM192.301 8.33977V16.3318H194.301V8.33977H192.301ZM190.781 23.8118H219.221V21.8118H190.781V23.8118ZM218.221 22.8118V24.6838H220.221V22.8118H218.221ZM219.221 23.6838H206.441V25.6838H219.221V23.6838ZM205.441 24.6838V31.5598H207.441V24.6838H205.441ZM206.441 30.5598H204.281V32.5598H206.441V30.5598ZM205.281 31.5598V24.6838H203.281V31.5598H205.281ZM204.281 23.6838H190.781V25.6838H204.281V23.6838ZM191.781 24.6838V22.8118H189.781V24.6838H191.781ZM192.661 28.9318V35.0518H194.661V28.9318H192.661ZM193.661 36.0518H219.221V34.0518H193.661V36.0518ZM218.221 35.0518V36.9238H220.221V35.0518H218.221ZM219.221 35.9238H191.501V37.9238H219.221V35.9238ZM192.501 36.9238V28.9318H190.501V36.9238H192.501ZM191.501 29.9318H193.661V27.9318H191.501V29.9318ZM235.949 6.46777L236.916 6.21075C236.799 5.77268 236.403 5.46777 235.949 5.46777V6.46777ZM244.049 36.9238V37.9238C244.36 37.9238 244.653 37.7795 244.842 37.5333C245.031 37.2871 245.096 36.9669 245.016 36.6668L244.049 36.9238ZM241.817 36.9238L240.851 37.1808C240.967 37.6189 241.364 37.9238 241.817 37.9238V36.9238ZM234.149 8.08777L235.116 7.83078C234.999 7.3927 234.603 7.08777 234.149 7.08777C233.696 7.08777 233.299 7.3927 233.183 7.83078L234.149 8.08777ZM226.481 36.9238V37.9238C226.935 37.9238 227.331 37.6189 227.448 37.1808L226.481 36.9238ZM224.249 36.9238L223.283 36.6668C223.203 36.9669 223.267 37.2871 223.457 37.5333C223.646 37.7795 223.939 37.9238 224.249 37.9238V36.9238ZM232.349 6.46777V5.46777C231.896 5.46777 231.499 5.77268 231.383 6.21075L232.349 6.46777ZM248.729 36.9238H247.729C247.729 37.4761 248.177 37.9238 248.729 37.9238V36.9238ZM248.729 6.46777V5.46777C248.177 5.46777 247.729 5.91548 247.729 6.46777H248.729ZM250.889 6.46777H251.889C251.889 5.91548 251.442 5.46777 250.889 5.46777V6.46777ZM250.889 19.2478H249.889C249.889 19.8001 250.337 20.2478 250.889 20.2478V19.2478ZM255.569 19.2478H256.569C256.569 18.6955 256.122 18.2478 255.569 18.2478V19.2478ZM255.569 21.1198V22.1198C256.122 22.1198 256.569 21.6721 256.569 21.1198H255.569ZM250.889 21.1198V20.1198C250.337 20.1198 249.889 20.5675 249.889 21.1198H250.889ZM250.889 36.9238V37.9238C251.442 37.9238 251.889 37.4761 251.889 36.9238H250.889ZM234.983 6.72479L243.083 37.1808L245.016 36.6668L236.916 6.21075L234.983 6.72479ZM244.049 35.9238H241.817V37.9238H244.049V35.9238ZM242.784 36.6668L235.116 7.83078L233.183 8.34476L240.851 37.1808L242.784 36.6668ZM233.183 7.83078L225.515 36.6668L227.448 37.1808L235.116 8.34476L233.183 7.83078ZM226.481 35.9238H224.249V37.9238H226.481V35.9238ZM225.216 37.1808L233.316 6.72479L231.383 6.21075L223.283 36.6668L225.216 37.1808ZM232.349 7.46777H235.949V5.46777H232.349V7.46777ZM249.729 36.9238V6.46777H247.729V36.9238H249.729ZM248.729 7.46777H250.889V5.46777H248.729V7.46777ZM249.889 6.46777V19.2478H251.889V6.46777H249.889ZM250.889 20.2478H255.569V18.2478H250.889V20.2478ZM254.569 19.2478V21.1198H256.569V19.2478H254.569ZM255.569 20.1198H250.889V22.1198H255.569V20.1198ZM249.889 21.1198V36.9238H251.889V21.1198H249.889ZM250.889 35.9238H248.729V37.9238H250.889V35.9238Z" fill="#007EE5"/>
</g>
<path d="M50 10C50 12.7614 47.7614 15 45 15C47.7614 15 50 17.2386 50 20C50 17.2386 52.2386 15 55 15C52.2386 15 50 12.7614 50 10Z" fill="#007EE5"/>
</svg>
