<svg width="260" height="64" viewBox="0 0 260 64" fill="none" xmlns="http://www.w3.org/2000/svg">
<path d="M31.1672 16.576H35.0912V26.152H37.6472V16.576H41.6072V43.828H37.6472V29.968H35.0912V43.828H31.1672V16.576ZM17.7392 16.72H29.0072V20.608H22.0232V27.952H28.5752V31.804H22.0232V39.868H29.5112V43.684H17.7392V16.72ZM55.524 16.72C56.268 16.72 56.952 16.84 57.576 17.08C58.224 17.32 58.788 17.644 59.268 18.052C59.748 18.436 60.12 18.904 60.384 19.456C60.672 19.984 60.816 20.56 60.816 21.184V27.304C60.816 27.928 60.672 28.504 60.384 29.032C60.12 29.56 59.748 30.028 59.268 30.436C58.788 30.844 58.224 31.168 57.576 31.408C56.952 31.624 56.268 31.732 55.524 31.732H50.952C50.232 31.732 49.548 31.624 48.9 31.408C48.252 31.168 47.688 30.844 47.208 30.436C46.728 30.028 46.344 29.56 46.056 29.032C45.792 28.504 45.66 27.928 45.66 27.304V21.184C45.66 20.56 45.792 19.984 46.056 19.456C46.344 18.904 46.728 18.436 47.208 18.052C47.688 17.644 48.252 17.32 48.9 17.08C49.548 16.84 50.232 16.72 50.952 16.72H55.524ZM50.988 40.336H64.056V16.576H67.908V23.596H70.86V27.52H67.908V43.792H46.884V35.152H50.988V40.336ZM56.712 22.588C56.712 21.94 56.508 21.436 56.1 21.076C55.692 20.692 55.116 20.5 54.372 20.5H52.104C51.384 20.5 50.808 20.692 50.376 21.076C49.968 21.436 49.764 21.94 49.764 22.588V25.9C49.764 26.572 49.968 27.088 50.376 27.448C50.808 27.784 51.384 27.952 52.104 27.952H54.372C55.116 27.952 55.692 27.784 56.1 27.448C56.508 27.088 56.712 26.572 56.712 25.9V22.588Z" fill="white"/>
<path d="M110.661 12.196C110.913 12.196 111.093 12.412 111.201 12.844C111.309 13.24 111.453 13.636 111.633 14.032C111.813 14.572 111.903 15.04 111.903 15.436C111.903 15.652 111.885 15.85 111.849 16.03C111.813 16.174 111.777 16.372 111.741 16.624C111.669 16.804 111.651 17.002 111.687 17.218C111.723 17.434 111.687 17.74 111.579 18.136L111.741 18.946L111.525 20.512C111.489 21.016 111.453 21.358 111.417 21.538C111.417 21.718 111.399 21.862 111.363 21.97C111.363 22.042 111.345 22.114 111.309 22.186C111.273 22.258 111.237 22.42 111.201 22.672V22.942C111.201 23.014 111.201 23.104 111.201 23.212C111.237 23.32 111.255 23.428 111.255 23.536C111.255 23.716 111.237 23.878 111.201 24.022C111.165 24.166 111.111 24.256 111.039 24.292L110.931 24.886C110.859 25.606 110.769 26.38 110.661 27.208C110.589 28.036 110.517 28.81 110.445 29.53C110.265 30.07 110.067 30.538 109.851 30.934C109.671 31.33 109.563 31.582 109.527 31.69L109.041 33.094L108.501 34.12C108.285 34.516 108.123 34.894 108.015 35.254C107.907 35.578 107.637 35.83 107.205 36.01C106.953 36.19 106.719 36.298 106.503 36.334C106.287 36.37 106.071 36.388 105.855 36.388C105.567 36.388 105.333 36.298 105.153 36.118C105.009 35.902 104.865 35.686 104.721 35.47L104.667 34.822C104.667 34.642 104.613 34.516 104.505 34.444C104.397 34.336 104.343 34.102 104.343 33.742L104.721 31.744V31.042C104.721 30.97 104.703 30.916 104.667 30.88C104.667 30.844 104.649 30.772 104.613 30.664L104.937 30.016C104.973 29.656 105.009 29.296 105.045 28.936C105.081 28.576 105.189 28.252 105.369 27.964C105.261 27.856 105.207 27.64 105.207 27.316C105.207 27.028 105.297 26.704 105.477 26.344C104.613 26.56 103.749 26.812 102.885 27.1C102.021 27.352 101.283 27.586 100.671 27.802C100.491 27.982 100.257 28.126 99.9686 28.234C99.7166 28.306 99.5006 28.342 99.3206 28.342C98.5286 28.342 98.0066 28.198 97.7546 27.91C97.5386 27.586 97.4306 27.28 97.4306 26.992C97.4306 26.56 97.5206 26.326 97.7006 26.29C97.8806 26.218 98.0786 26.146 98.2946 26.074C98.3666 26.074 98.4566 26.02 98.5646 25.912C98.6366 25.84 98.7266 25.768 98.8346 25.696C98.9786 25.588 99.0686 25.498 99.1046 25.426C99.3206 25.318 99.6806 25.192 100.185 25.048C100.689 24.868 101.265 24.67 101.913 24.454C102.561 24.238 103.245 24.04 103.965 23.86C104.685 23.644 105.369 23.464 106.017 23.32C106.053 23.32 106.179 23.284 106.395 23.212C106.395 23.14 106.395 23.086 106.395 23.05C106.431 22.978 106.449 22.906 106.449 22.834L106.395 22.348V21.106L106.881 19C106.953 18.532 107.025 18.136 107.097 17.812C107.205 17.452 107.259 16.966 107.259 16.354L107.367 15.382C107.403 15.058 107.493 14.788 107.637 14.572V13.87C107.673 13.69 107.781 13.492 107.961 13.276C108.177 13.06 108.411 12.862 108.663 12.682C108.915 12.466 109.167 12.304 109.419 12.196C109.707 12.052 109.959 11.98 110.175 11.98C110.355 11.98 110.517 12.052 110.661 12.196ZM93.0566 21.862C93.5606 21.862 93.9926 22.006 94.3526 22.294C94.7486 22.582 94.9466 22.924 94.9466 23.32C94.9466 23.608 94.9286 23.896 94.8926 24.184C94.8566 24.472 94.8026 24.706 94.7306 24.886L94.4066 25.102L93.8126 26.236C93.5246 26.632 93.2186 27.118 92.8946 27.694C92.5706 28.27 92.2646 28.774 91.9766 29.206L91.7606 29.314C91.7606 29.782 91.5806 30.106 91.2206 30.286L90.8966 30.448C90.7166 30.7 90.5906 30.898 90.5186 31.042C90.4466 31.186 90.2126 31.492 89.8166 31.96C89.6006 32.284 89.3126 32.698 88.9526 33.202C88.6286 33.706 88.3226 34.12 88.0346 34.444C88.0346 34.444 87.9806 34.516 87.8726 34.66C87.7646 34.804 87.6026 34.966 87.3866 35.146C87.2066 35.29 86.9726 35.434 86.6846 35.578C86.4326 35.722 86.1266 35.812 85.7666 35.848C85.5146 35.848 85.2446 35.794 84.9566 35.686C84.6686 35.542 84.4346 35.362 84.2546 35.146C84.1826 35.038 84.1646 34.966 84.2006 34.93C84.2726 34.858 84.3086 34.75 84.3086 34.606C84.3086 34.462 84.3446 34.336 84.4166 34.228C84.4886 34.12 84.5426 33.976 84.5786 33.796L84.7406 33.58L85.1726 33.418L85.4966 32.77C85.6766 32.626 85.8386 32.464 85.9826 32.284C86.1266 32.068 86.2886 31.834 86.4686 31.582L87.5486 29.962L90.7886 24.886C89.9606 25.174 89.4386 25.354 89.2226 25.426C89.0426 25.462 88.9166 25.498 88.8446 25.534C88.4486 25.678 88.0346 25.84 87.6026 26.02C87.1706 26.164 86.7746 26.272 86.4146 26.344C86.0906 26.416 85.7666 26.434 85.4426 26.398C85.1186 26.362 84.9206 26.092 84.8486 25.588C84.7766 25.156 84.8306 24.796 85.0106 24.508C85.2266 24.184 85.4966 23.95 85.8206 23.806C86.1806 23.626 86.5766 23.482 87.0086 23.374C87.4766 23.23 88.0706 23.05 88.7906 22.834L89.3846 22.564C89.9606 22.384 90.5366 22.24 91.1126 22.132C91.6886 22.024 92.2826 21.934 92.8946 21.862H93.0566ZM102.183 45.082C102.255 44.038 102.453 43.048 102.777 42.112C103.101 41.176 103.461 40.474 103.857 40.006C104.325 39.394 104.991 38.908 105.855 38.548C106.755 38.188 107.511 38.026 108.123 38.062C108.303 38.098 108.501 38.242 108.717 38.494C108.969 38.746 109.203 39.07 109.419 39.466C109.635 39.826 109.815 40.222 109.959 40.654C110.103 41.086 110.193 41.5 110.229 41.896C110.265 42.616 110.247 43.318 110.175 44.002C110.139 44.65 110.013 45.262 109.797 45.838C109.509 46.522 109.185 47.026 108.825 47.35C108.501 47.674 108.051 48.034 107.475 48.43H106.881C106.773 48.43 106.647 48.43 106.503 48.43C106.395 48.466 106.269 48.484 106.125 48.484C105.945 48.484 105.693 48.538 105.369 48.646C105.225 48.682 105.081 48.718 104.937 48.754C104.793 48.79 104.685 48.808 104.613 48.808C104.397 48.808 104.127 48.664 103.803 48.376C103.515 48.088 103.245 47.746 102.993 47.35C102.741 46.99 102.525 46.594 102.345 46.162C102.201 45.766 102.147 45.406 102.183 45.082ZM95.4326 11.926C95.3606 12.322 95.2526 12.61 95.1086 12.79C95.3606 12.934 95.4686 13.132 95.4326 13.384C95.3966 13.672 95.3066 14.104 95.1626 14.68C95.0546 15.22 94.9466 15.67 94.8386 16.03C94.7666 16.534 94.6406 16.984 94.4606 17.38C94.3166 17.74 94.1366 18.082 93.9206 18.406C93.8126 18.658 93.7406 18.838 93.7046 18.946C93.6686 19.054 93.6146 19.252 93.5426 19.54C93.4706 19.792 93.3626 20.044 93.2186 20.296C93.0746 20.512 92.8586 20.71 92.5706 20.89C91.9586 20.746 91.4726 20.53 91.1126 20.242C90.7886 19.918 90.6626 19.288 90.7346 18.352C90.6986 18.28 90.6626 18.136 90.6266 17.92C90.5906 17.704 90.5726 17.56 90.5726 17.488C90.6086 17.416 90.6266 17.344 90.6266 17.272C90.6626 17.164 90.6986 17.02 90.7346 16.84C90.7346 16.66 90.7166 16.534 90.6806 16.462C90.6446 16.246 90.6266 15.994 90.6266 15.706C90.6266 15.382 90.6986 14.95 90.8426 14.41C90.9866 13.798 91.1846 13.204 91.4366 12.628C91.7246 12.052 92.1026 11.548 92.5706 11.116C93.1106 10.72 93.6326 10.558 94.1366 10.63C94.6046 10.774 94.9286 10.99 95.1086 11.278C95.3246 11.53 95.4326 11.746 95.4326 11.926ZM94.4066 38.548L94.0826 38.008L93.9206 37.792C93.7406 37.504 93.6146 37.27 93.5426 37.09C93.4706 36.874 93.3986 36.622 93.3266 36.334C93.2546 35.938 93.1826 35.542 93.1106 35.146C93.0746 34.75 93.0026 34.354 92.8946 33.958V33.742L92.7866 33.472L92.8406 33.148C92.7686 32.932 92.7146 32.698 92.6786 32.446C92.6426 32.194 92.6066 31.924 92.5706 31.636V31.366L92.4086 31.096C92.4806 30.664 92.5526 30.376 92.6246 30.232C92.6966 30.052 92.8046 29.926 92.9486 29.854C93.0566 29.854 93.1106 29.782 93.1106 29.638C93.2546 29.278 93.4166 29.134 93.5966 29.206C93.8126 29.242 94.1006 29.224 94.4606 29.152C94.5326 29.26 94.6586 29.386 94.8386 29.53C95.0186 29.674 95.1986 29.818 95.3786 29.962V30.124L95.7026 30.664L95.8646 31.366C95.9366 31.474 95.9906 31.582 96.0266 31.69C96.0626 31.762 96.0986 31.87 96.1346 32.014C96.1706 32.05 96.2246 32.194 96.2966 32.446C96.3686 32.698 96.4226 32.914 96.4586 33.094C96.4946 33.274 96.5126 33.418 96.5126 33.526C96.5486 33.598 96.5846 33.85 96.6206 34.282C96.5846 34.39 96.6026 34.57 96.6746 34.822C96.7466 35.038 96.7646 35.218 96.7286 35.362C96.7286 35.506 96.7466 35.668 96.7826 35.848C96.7826 35.92 96.7826 36.01 96.7826 36.118C96.7826 36.226 96.8186 36.352 96.8906 36.496L96.8366 36.658V36.874C96.8366 37.09 96.8186 37.27 96.7826 37.414L96.6746 38.062L96.4046 39.034L95.9726 39.574L95.6486 39.898L95.1086 39.736L94.4066 38.548ZM107.205 41.248C106.845 41.248 106.539 41.392 106.287 41.68C106.035 41.932 105.837 42.256 105.693 42.652C105.837 42.796 105.945 43.03 106.017 43.354C106.017 43.534 105.981 43.732 105.909 43.948C105.837 44.164 105.837 44.362 105.909 44.542C105.909 44.614 105.963 44.794 106.071 45.082C106.179 45.37 106.359 45.55 106.611 45.622C106.719 45.406 106.827 45.154 106.935 44.866C107.079 44.542 107.205 44.2 107.313 43.84C107.421 43.48 107.511 43.12 107.583 42.76C107.655 42.4 107.673 42.076 107.637 41.788C107.637 41.428 107.493 41.248 107.205 41.248ZM146.631 14.356C146.883 14.5 147.063 14.644 147.171 14.788C147.315 14.932 147.351 15.22 147.279 15.652C147.279 15.868 147.333 16.084 147.441 16.3C147.513 16.48 147.567 16.66 147.603 16.84C147.675 16.984 147.693 17.11 147.657 17.218C147.693 17.614 147.603 17.92 147.387 18.136L147.549 18.514C147.513 18.694 147.495 18.91 147.495 19.162V20.188L147.711 20.62L147.387 23.536C147.315 23.86 147.279 24.274 147.279 24.778C147.279 25.282 147.189 25.678 147.009 25.966L147.063 26.398C147.063 26.506 147.045 26.614 147.009 26.722L146.901 27.046C146.829 27.91 146.775 28.828 146.739 29.8C146.703 30.772 146.649 31.69 146.577 32.554C146.505 32.806 146.415 33.04 146.307 33.256C146.235 33.436 146.163 33.616 146.091 33.796C145.911 34.084 145.803 34.372 145.767 34.66L145.443 35.578C145.407 35.758 145.371 35.938 145.335 36.118C145.299 36.298 145.263 36.478 145.227 36.658L144.633 37.09C144.633 37.486 144.435 37.972 144.039 38.548C143.679 39.088 143.139 39.448 142.419 39.628C141.879 39.628 141.519 39.574 141.339 39.466C141.195 39.358 141.033 39.16 140.853 38.872L140.691 38.656L140.583 37.954L140.475 37.63L140.367 36.982C140.115 36.73 140.079 36.514 140.259 36.334C140.439 36.118 140.583 35.956 140.691 35.848L140.637 35.038V34.228L140.583 33.958L140.529 33.58L140.853 32.986C140.889 32.482 140.925 32.014 140.961 31.582C140.997 31.15 141.033 30.682 141.069 30.178C141.069 29.998 141.087 29.872 141.123 29.8C141.195 29.728 141.267 29.656 141.339 29.584C141.195 29.44 141.123 29.26 141.123 29.044C140.187 29.332 139.197 29.656 138.153 30.016C137.145 30.34 136.299 30.646 135.615 30.934C135.435 31.114 135.201 31.258 134.913 31.366C134.661 31.474 134.445 31.528 134.265 31.528C133.473 31.564 132.951 31.438 132.699 31.15C132.483 30.862 132.357 30.574 132.321 30.286C132.285 29.854 132.357 29.602 132.537 29.53C132.717 29.458 132.915 29.386 133.131 29.314C133.203 29.314 133.293 29.26 133.401 29.152C133.473 29.08 133.563 28.99 133.671 28.882C133.815 28.774 133.905 28.684 133.941 28.612C134.157 28.504 134.499 28.36 134.967 28.18C135.471 28 136.029 27.802 136.641 27.586C137.289 27.334 137.973 27.1 138.693 26.884C139.413 26.632 140.097 26.416 140.745 26.236C140.853 26.2 140.961 26.164 141.069 26.128C141.213 26.092 141.357 26.074 141.501 26.074C141.573 25.966 141.663 25.876 141.771 25.804C141.879 25.732 141.969 25.606 142.041 25.426C142.041 25.21 142.095 25.03 142.203 24.886C142.275 24.634 142.275 24.346 142.203 24.022C142.167 23.77 142.131 23.536 142.095 23.32C142.095 23.068 142.131 22.852 142.203 22.672C142.275 22.132 142.329 21.682 142.365 21.322C142.437 20.926 142.509 20.584 142.581 20.296C142.653 19.936 142.707 19.594 142.743 19.27C142.779 18.946 142.815 18.586 142.851 18.19C142.851 18.118 142.851 17.974 142.851 17.758C142.887 17.506 142.905 17.344 142.905 17.272C142.941 17.128 142.977 17.002 143.013 16.894C143.049 16.75 143.103 16.588 143.175 16.408C143.175 16.3 143.175 16.156 143.175 15.976C143.175 15.76 143.193 15.616 143.229 15.544C143.301 15.256 143.499 15.004 143.823 14.788C144.183 14.536 144.507 14.392 144.795 14.356C144.975 14.212 145.173 14.05 145.389 13.87C145.641 13.654 145.929 13.708 146.253 14.032L146.631 14.356ZM123.465 34.66C123.789 34.588 124.239 34.48 124.815 34.336C125.391 34.192 125.985 34.048 126.597 33.904C127.209 33.724 127.821 33.544 128.433 33.364C129.045 33.184 129.567 33.004 129.999 32.824C130.179 32.752 130.395 32.68 130.647 32.608C130.899 32.536 131.151 32.5 131.403 32.5L131.943 32.608C132.159 32.68 132.339 32.752 132.483 32.824C132.663 32.896 132.753 33.076 132.753 33.364C132.753 33.436 132.717 33.544 132.645 33.688C132.357 34.084 132.213 34.408 132.213 34.66C132.141 34.732 131.979 34.822 131.727 34.93C131.475 35.038 131.295 35.128 131.187 35.2C130.503 35.524 129.855 35.794 129.243 36.01C128.631 36.226 128.019 36.442 127.407 36.658L127.191 36.82L126.705 37.144L126.273 37.09C126.093 37.198 125.823 37.324 125.463 37.468C125.103 37.576 124.707 37.684 124.275 37.792C123.879 37.9 123.483 38.008 123.087 38.116C122.691 38.188 122.367 38.242 122.115 38.278C121.827 38.35 121.503 38.458 121.143 38.602C120.819 38.71 120.459 38.728 120.063 38.656C119.559 38.584 119.217 38.404 119.037 38.116C118.857 37.828 118.677 37.396 118.497 36.82L118.389 36.55C118.209 36.226 118.119 35.92 118.119 35.632C118.119 35.308 118.155 34.966 118.227 34.606C118.227 34.498 118.245 34.318 118.281 34.066C118.317 33.778 118.353 33.436 118.389 33.04C118.425 32.5 118.461 31.888 118.497 31.204C118.569 30.52 118.623 29.836 118.659 29.152C118.731 28.432 118.785 27.766 118.821 27.154C118.893 26.542 118.965 26.038 119.037 25.642C119.037 25.282 119.163 24.886 119.415 24.454C119.487 24.274 119.559 24.076 119.631 23.86C119.703 23.644 119.757 23.392 119.793 23.104C119.865 22.492 120.027 22.114 120.279 21.97C120.531 21.826 120.837 21.718 121.197 21.646H122.439C122.475 21.682 122.511 21.736 122.547 21.808C122.619 21.88 122.691 21.952 122.763 22.024C122.871 22.204 122.925 22.312 122.925 22.348C122.961 22.348 123.015 22.366 123.087 22.402C123.159 22.438 123.249 22.456 123.357 22.456C123.465 22.456 123.537 22.492 123.573 22.564C123.573 23.032 123.573 23.734 123.573 24.67C123.573 25.57 123.555 26.47 123.519 27.37C123.483 28.27 123.447 29.188 123.411 30.124C123.411 31.024 123.411 31.834 123.411 32.554C123.411 32.842 123.411 33.148 123.411 33.472C123.411 33.796 123.429 34.192 123.465 34.66ZM139.233 44.326L140.637 44.056L141.177 44.11L141.771 43.948C142.563 43.768 143.157 43.642 143.553 43.57C143.949 43.462 144.219 43.39 144.363 43.354C144.543 43.318 144.669 43.3 144.741 43.3C144.849 43.264 145.011 43.21 145.227 43.138C145.839 43.282 146.145 43.516 146.145 43.84C146.181 44.128 146.163 44.416 146.091 44.704L146.037 45.19L145.389 45.514C144.885 45.694 144.165 45.892 143.229 46.108C142.329 46.36 141.483 46.558 140.691 46.702L139.395 47.134C139.071 47.242 138.747 47.296 138.423 47.296C138.099 47.332 137.793 47.368 137.505 47.404C137.217 47.44 136.947 47.476 136.695 47.512C136.443 47.548 136.173 47.62 135.885 47.728C135.201 47.44 134.787 47.098 134.643 46.702C134.535 46.306 134.481 45.892 134.481 45.46C134.517 45.316 134.535 45.172 134.535 45.028C134.571 44.884 134.607 44.74 134.643 44.596C134.715 44.272 134.787 43.984 134.859 43.732C134.967 43.444 135.021 43.102 135.021 42.706L135.183 42.058L135.453 41.518L135.669 40.924C135.741 40.78 135.867 40.618 136.047 40.438C136.227 40.222 136.425 40.024 136.641 39.844C136.893 39.628 137.127 39.448 137.343 39.304C137.559 39.124 137.757 39.016 137.937 38.98C138.333 39.16 138.603 39.376 138.747 39.628C138.927 39.88 139.035 40.168 139.071 40.492C139.107 40.636 139.143 40.996 139.179 41.572C139.251 42.148 139.251 42.562 139.179 42.814L139.233 43.84V44.326ZM141.555 21.592C141.555 21.628 141.537 21.772 141.501 22.024C141.465 22.24 141.411 22.492 141.339 22.78C141.267 23.032 141.177 23.284 141.069 23.536C140.997 23.752 140.925 23.914 140.853 24.022C140.709 24.202 140.565 24.31 140.421 24.346C140.277 24.382 140.151 24.4 140.043 24.4C139.683 24.4 139.449 24.31 139.341 24.13C139.233 23.95 139.143 23.77 139.071 23.59C138.855 23.626 138.567 23.698 138.207 23.806C137.847 23.914 137.469 24.022 137.073 24.13C136.677 24.238 136.299 24.364 135.939 24.508C135.579 24.616 135.291 24.724 135.075 24.832L134.211 25.156C134.139 25.192 134.049 25.246 133.941 25.318C133.869 25.354 133.797 25.39 133.725 25.426C133.617 25.498 133.509 25.552 133.401 25.588C133.329 25.624 133.185 25.678 132.969 25.75C132.717 25.822 132.555 25.876 132.483 25.912C132.411 25.912 132.231 25.93 131.943 25.966C131.619 26.002 131.295 26.038 130.971 26.074C130.683 26.11 130.413 25.876 130.161 25.372C130.053 25.192 129.981 24.994 129.945 24.778C129.945 24.526 130.035 24.292 130.215 24.076C130.287 24.004 130.377 23.932 130.485 23.86C130.593 23.788 130.719 23.716 130.863 23.644C131.331 23.428 131.889 23.176 132.537 22.888C133.221 22.6 133.941 22.312 134.697 22.024C135.453 21.736 136.191 21.466 136.911 21.214C137.667 20.962 138.351 20.746 138.963 20.566C139.071 20.53 139.269 20.548 139.557 20.62C139.845 20.692 140.133 20.782 140.421 20.89C140.745 20.998 141.015 21.124 141.231 21.268C141.447 21.412 141.555 21.52 141.555 21.592Z" fill="white"/>
<path d="M169.075 39.94H182.647V16.576H186.751V43.828H164.935V35.008H169.075V39.94ZM173.143 16.72L178.903 31.372H174.331L170.839 22.264L167.311 31.372H162.775L168.499 16.72H173.143ZM213.448 16.72V27.952H192.568V16.72H213.448ZM215.392 30.544V34.144H205.456V37.996H201.64V34.144H196.672V39.94H214.024V43.828H192.568V34.144H190.624V30.544H215.392ZM196.348 24.136H209.632V20.572H196.348V24.136ZM230.424 43.684L226.5 25.972L222.576 43.684H218.364L224.556 16.72H228.408L234.636 43.684H230.424ZM241.224 25.216H244.176V29.14H241.224V43.828H237.264V16.576H241.224V25.216Z" fill="white"/>
</svg>
