<svg width="24" height="24" viewBox="0 0 24 24" fill="none" xmlns="http://www.w3.org/2000/svg">
<rect x="0.375" y="0.375" width="23.25" height="23.25" rx="11.625" stroke="#434343" stroke-width="0.75"/>
<path fill-rule="evenodd" clip-rule="evenodd" d="M8.5 6C9.05228 6 9.5 6.33579 9.5 6.75V17.25C9.5 17.6642 9.05228 18 8.5 18C7.94772 18 7.5 17.6642 7.5 17.25V6.75C7.5 6.33579 7.94772 6 8.5 6Z" fill="#434343"/>
<path fill-rule="evenodd" clip-rule="evenodd" d="M15.5 6C16.0523 6 16.5 6.33579 16.5 6.75V17.25C16.5 17.6642 16.0523 18 15.5 18C14.9477 18 14.5 17.6642 14.5 17.25V6.75C14.5 6.33579 14.9477 6 15.5 6Z" fill="#434343"/>
<path fill-rule="evenodd" clip-rule="evenodd" d="M8.5 6C9.05228 6 9.5 6.33579 9.5 6.75V17.25C9.5 17.6642 9.05228 18 8.5 18C7.94772 18 7.5 17.6642 7.5 17.25V6.75C7.5 6.33579 7.94772 6 8.5 6Z" stroke="#434343" stroke-width="0.5" stroke-linecap="round"/>
<path fill-rule="evenodd" clip-rule="evenodd" d="M15.5 6C16.0523 6 16.5 6.33579 16.5 6.75V17.25C16.5 17.6642 16.0523 18 15.5 18C14.9477 18 14.5 17.6642 14.5 17.25V6.75C14.5 6.33579 14.9477 6 15.5 6Z" stroke="#434343" stroke-width="0.5" stroke-linecap="round"/>
</svg>
